<svg id="Layer_1" data-name="Layer 1" xmlns="http://www.w3.org/2000/svg" xmlns:xlink="http://www.w3.org/1999/xlink" viewBox="0 0 784.58 844.91"><defs><style>.cls-1{fill:url(#linear-gradient);}.cls-2{fill:url(#linear-gradient-2);}.cls-3{fill:url(#linear-gradient-3);}.cls-4{fill:url(#linear-gradient-4);}.cls-5{fill:url(#linear-gradient-5);}</style><linearGradient id="linear-gradient" x1="-0.42" y1="0.03" x2="1.4" y2="0.03" gradientTransform="matrix(437.96, 0, 0, -437.96, 321.02, 554.33)" gradientUnits="userSpaceOnUse"><stop offset="0" stop-color="#9e005d"/><stop offset="1" stop-color="#0071bc"/></linearGradient><linearGradient id="linear-gradient-2" x1="-0.9" y1="0.2" x2="0.92" y2="0.2" gradientTransform="matrix(151.89, 0, 0, -151.89, 379.24, 535.37)" xlink:href="#linear-gradient"/><linearGradient id="linear-gradient-3" x1="-0.26" y1="0.2" x2="1.56" y2="0.2" gradientTransform="matrix(151.89, 0, 0, -151.89, 497.95, 535.37)" xlink:href="#linear-gradient"/><linearGradient id="linear-gradient-4" x1="0.91" y1="0.34" x2="2.73" y2="0.34" gradientTransform="matrix(72.83, 0, 0, -72.83, 627.94, 541.62)" xlink:href="#linear-gradient"/><linearGradient id="linear-gradient-5" x1="147.71" y1="540" x2="932.29" y2="540" gradientTransform="matrix(1, 0, 0, 1, 0, 0)" xlink:href="#linear-gradient"/></defs><title>LOGO COLORED NEW SVG</title><path class="cls-1" d="M147.73,514V499.7c0-2.38-.08-4.75.07-7.13l0.36-7.13,0.36-7.14,0.18-3.57c0.07-1.19.23-2.37,0.34-3.56l1.44-14.23c0.5-4.74,1.37-9.44,2.07-14.16l1.11-7.08,1.45-7c1-4.66,1.85-9.38,3-14l3.62-13.88a387.27,387.27,0,0,1,19.62-54,388.45,388.45,0,0,1,62.35-96.66,434.88,434.88,0,0,1,41.36-40.47,424.71,424.71,0,0,1,46.93-34l12.51-7.38c2.06-1.27,4.23-2.35,6.37-3.48l6.43-3.38,6.44-3.37,6.59-3.06,6.6-3.06c2.2-1,4.39-2.07,6.65-2.94l13.48-5.47c4.51-1.78,9.14-3.25,13.7-4.89,2.29-.79,4.58-1.62,6.88-2.38l7-2.06,7-2.06c2.33-.69,4.65-1.4,7-1.92l14.16-3.42c2.35-.62,4.75-1,7.14-1.46L467.1,124l7.16-1.35,7.22-1c4.82-.62,9.62-1.4,14.46-1.89l14.53-1.22,3.64-.3,3.64-.13,7.29-.23,7.29-.23,1.82-.06h1.14l0.89,0,3.56,0.07L554,117.91c4.85,0.24,9.8.65,14.7,1,2.45,0.19,4.93.31,7.36,0.56l7.25,0.88,7.25,0.88c2.42,0.3,4.84.55,7.23,1l14.4,2.48c2.41,0.36,4.78.95,7.16,1.47l7.13,1.6,7.13,1.6,7,1.93c4.68,1.34,9.42,2.52,14.06,4l13.88,4.61c2.33,0.72,4.6,1.62,6.87,2.51l6.82,2.64,6.82,2.65,6.69,3,6.68,3c2.22,1,4.49,1.93,6.63,3.08l13,6.65a423.27,423.27,0,0,1,49.46,31.22A397.39,397.39,0,0,1,854.32,277a389.11,389.11,0,0,1,55,103L914,393.81c1.51,4.64,2.7,9.38,4.07,14.07l2,7.05,1.64,7.14,1.63,7.14c0.54,2.38,1.13,4.75,1.5,7.16l2.55,14.42c0.47,2.4.73,4.82,1,7.24l0.91,7.26,0.91,7.26c0.26,2.43.38,4.86,0.58,7.29,0.34,4.87.77,9.73,1,14.6l0.34,14.63,0.08,3.66,0,0.91v1.16l0,1.78L932,523.72l-0.19,7.12-0.11,3.57-0.28,3.7-1.18,14.77c-0.48,4.9-1.24,9.69-1.85,14.53l-1,7.25-1.33,7.19L924.79,589c-0.46,2.39-.83,4.81-1.44,7.17L920,610.45c-0.52,2.38-1.22,4.72-1.9,7.06l-2,7-2,7c-0.75,2.32-1.57,4.61-2.36,6.92-1.63,4.59-3.09,9.24-4.86,13.78l-5.44,13.56a413.77,413.77,0,0,1-26.57,52,409.47,409.47,0,0,1-34,47.36,437.25,437.25,0,0,1-40.55,41.76,431.07,431.07,0,0,1-46.17,35.31,398.52,398.52,0,0,1-50.82,28L690,876c-4.44,1.9-9,3.48-13.52,5.23-2.26.85-4.51,1.73-6.78,2.54l-6.9,2.23-6.89,2.23c-2.29.75-4.59,1.51-6.93,2.09l-14,3.76c-4.67,1.22-9.42,2.1-14.12,3.16l-7.07,1.52-7.14,1.17-7.13,1.17c-2.38.37-4.74,0.85-7.15,1.05a431.52,431.52,0,0,1-57.58,3.23l2.12-.55-52.31,27.64-52.41,27.47-4.81,2.52,1.93-5,14.5-37.32,14.57-37.3-12.6,38-12.67,38-2.88-2.46,51.17-29.7,51.27-29.53,0.88-.51,1.24,0a421.8,421.8,0,0,0,56-5.15c4.63-.7,9.21-1.73,13.81-2.57l6.89-1.33,6.82-1.67c4.53-1.16,9.11-2.14,13.6-3.44l13.44-4c2.25-.62,4.45-1.42,6.65-2.21l6.61-2.34,6.6-2.34c2.18-.85,4.32-1.77,6.49-2.64,4.3-1.82,8.67-3.46,12.91-5.41l12.67-5.95c2.13-.95,4.17-2.08,6.23-3.17l6.18-3.28,6.17-3.28,6-3.57,6-3.56c2-1.18,4-2.34,6-3.66l11.68-7.66a415.2,415.2,0,0,0,43.61-34.78,420.27,420.27,0,0,0,38-40.73,427.81,427.81,0,0,0,31.65-45.73,394.79,394.79,0,0,0,24.69-49.75l5-13c1.63-4.33,3-8.77,4.45-13.15,0.72-2.2,1.48-4.39,2.16-6.59l1.85-6.69,1.85-6.69c0.62-2.23,1.27-4.45,1.73-6.72l3-13.54c0.56-2.24.87-4.54,1.28-6.82l1.18-6.84,1.18-6.83,0.84-6.89c0.52-4.58,1.19-9.19,1.58-13.75l1-13.64,0.26-3.41,0.1-3.55,0.17-7.12,0.17-7.12,0-1.78v-0.45c0-.21,0,0.21,0-0.17l0-.87-0.1-3.47-0.38-13.86c-0.27-4.61-.7-9.22-1-13.82-0.2-2.3-.32-4.61-0.57-6.91l-0.89-6.87L907.41,461c-0.3-2.29-.55-4.59-1-6.85l-2.46-13.64c-0.36-2.28-.93-4.52-1.45-6.77L900.91,427l-1.57-6.75-1.89-6.66c-1.31-4.43-2.45-8.91-3.9-13.29l-4.47-13.11a390.38,390.38,0,0,0-22.55-50.54A413.77,413.77,0,0,0,837,289.86a376,376,0,0,0-78-78.27,383.75,383.75,0,0,0-97.27-52.49l-13.11-4.53c-4.39-1.47-8.87-2.63-13.3-4l-6.67-1.92-6.75-1.6-6.75-1.6c-2.25-.53-4.49-1.11-6.78-1.48l-13.66-2.53c-2.27-.47-4.57-0.73-6.86-1l-6.89-.92-6.89-.92c-2.29-.26-4.56-0.39-6.84-0.6-4.58-.35-9.08-0.8-13.72-1.1l-14.24-.45-3.56-.11-0.89,0h-0.64l-1.74,0-7,.13-7,.13-3.48.08-3.47.24-13.88.94c-4.62.38-9.22,1-13.83,1.53l-6.91.81-6.86,1.16-6.87,1.15c-2.29.4-4.59,0.71-6.85,1.26l-13.61,3c-2.28.45-4.51,1.09-6.75,1.71l-6.72,1.84-6.73,1.83c-2.22.68-4.42,1.43-6.63,2.15-4.4,1.48-8.87,2.8-13.23,4.42l-13,5a400.91,400.91,0,0,0-50.1,24.59,410.8,410.8,0,0,0-46.16,31.57,422.59,422.59,0,0,0-41.14,38.07A437.21,437.21,0,0,0,217,301.65a403.77,403.77,0,0,0-28.65,48.47l-6,12.75c-2,4.27-3.65,8.67-5.52,13-0.9,2.18-1.84,4.34-2.71,6.53L171.67,389l-2.41,6.65c-0.81,2.21-1.63,4.43-2.28,6.7a408.84,408.84,0,0,0-13.6,55l-2.16,14c-0.17,1.17-.38,2.34-0.52,3.52l-0.36,3.53-0.72,7.07-0.72,7.08c-0.27,2.36-.28,4.74-0.44,7.11Z" transform="translate(-147.71 -117.54)"/><path class="cls-2" d="M510.83,340.58q7.8,10.6,7.8,20.07a37.45,37.45,0,0,1-1.67,8.64,5.91,5.91,0,0,1-4.18,3.9,24.48,24.48,0,0,1-3.62.84h-3.9q-3.91,0-12.26-2.51t-10-3.07q-37.35-10-78,17.84a223.88,223.88,0,0,0-66.34,70.8q-18.4,30.1-7.25,44.6,5.57,7.25,23.41,17.84,13.38,8.36,21.18,13.94A194.64,194.64,0,0,1,393.49,548a79.18,79.18,0,0,1,15.61,19.23,82.83,82.83,0,0,1,8.64,22.58q7.24,29-8.92,55.75a104.3,104.3,0,0,1-32.33,34A132.62,132.62,0,0,1,331.88,699q-26.76,6.13-48.5,1.67a87,87,0,0,1-19-7.25,40.24,40.24,0,0,1-17.84-19Q241,662.8,243.25,655q1.67-7.24,6.69-6.13,3.34,1.12,7.25,6.13,5.57,6.69,7.81,8.36,20.62,16.17,63.55-4.46,35.67-17.27,40.7-44.6,3.89-21.74-24.53-39.58-2.23-1.67-14.22-8.36t-19.23-11.71q-24-15.6-34-38.46-11.71-26.76,0-61.32,6.69-20.07,23.41-45.15a312.76,312.76,0,0,1,65.22-70.8q28.43-21.74,56.31-27.87,39.58-8.91,73,13.38A58.4,58.4,0,0,1,510.83,340.58Z" transform="translate(-147.71 -117.54)"/><path class="cls-3" d="M726.57,340.58q7.8,10.6,7.81,20.07a37.48,37.48,0,0,1-1.68,8.64,5.9,5.9,0,0,1-4.18,3.9,24.32,24.32,0,0,1-3.62.84H721q-3.91,0-12.26-2.51t-10-3.07q-37.36-10-78,17.84a223.87,223.87,0,0,0-66.34,70.8q-18.39,30.1-7.25,44.6,5.57,7.25,23.41,17.84,13.38,8.36,21.18,13.94A194,194,0,0,1,609.22,548a79.21,79.21,0,0,1,15.61,19.23,82.85,82.85,0,0,1,8.64,22.58q7.24,29-8.92,55.75a104.31,104.31,0,0,1-32.33,34A132.64,132.64,0,0,1,547.62,699q-26.76,6.13-48.5,1.67a87,87,0,0,1-19-7.25,40.24,40.24,0,0,1-17.84-19Q456.76,662.8,459,655q1.67-7.24,6.69-6.13Q469,650,472.92,655q5.57,6.69,7.81,8.36,20.62,16.17,63.55-4.46,35.67-17.27,40.7-44.6,3.89-21.74-24.53-39.58-2.24-1.67-14.22-8.36T527,554.65q-24-15.6-34-38.46-11.71-26.76,0-61.32,6.69-20.07,23.41-45.15a312.78,312.78,0,0,1,65.22-70.8q28.43-21.74,56.31-27.87,39.57-8.91,73,13.38A58.39,58.39,0,0,1,726.57,340.58Z" transform="translate(-147.71 -117.54)"/><path class="cls-4" d="M815.77,641.06a8.7,8.7,0,0,0,3.9.28q2.22-.27,4.46,2.51t2.79,8.36a29.93,29.93,0,0,1-2.23,11.15,39.85,39.85,0,0,1-9.76,15.05,52.3,52.3,0,0,1-16.72,10.31,156.38,156.38,0,0,1-16.45,5.85q-6.14,1.67-18.4,4.46l-12.54,2.51q-9.76,1.95-15.89,3.62a62.84,62.84,0,0,0-11.71,4.46,18.44,18.44,0,0,1-3.06,2,40,40,0,0,0-4.74,3.06,28.76,28.76,0,0,1-5.3,3.07,21.6,21.6,0,0,1-4.74,1.67A2.68,2.68,0,0,1,702.6,718q-2.8-3.91-5-15.05-5-22.29-1.67-37.91a24.59,24.59,0,0,1,3.9-10q-1.67-10.58-2.79-22.86a316,316,0,0,1,.56-49.61q3.89-36.23,19.51-92,11.15-39,36.79-103.69,17.84-46.83,21.74-59.09,3.89-11.15,8.92-12.82,6.13-2.22,15.61,4.46,18.39,12.83,23.41,35.68c0.37,3.34.64,6.6,0.84,9.76a38.13,38.13,0,0,1-.84,10q-1.12,5.3-1.67,8.36a49.49,49.49,0,0,1-3.34,9.48q-2.8,6.42-3.62,8.08t-4.18,8.92q-10,20.07-27.32,59.65Q763.91,518.42,753.89,558q-0.56,2.8-4.74,25.37T741.06,626q-3.91,20.07-4.46,20.07h1.67l10.59-.56q8.36,0,31.22-2.51T815.77,641.06Z" transform="translate(-147.71 -117.54)"/><path class="cls-5" d="M147.73,514V499.7c0-2.38-.08-4.75.07-7.13l0.36-7.13,0.36-7.14,0.18-3.57c0.07-1.19.23-2.37,0.34-3.56l1.44-14.23c0.5-4.74,1.37-9.44,2.07-14.16l1.11-7.08,1.45-7c1-4.66,1.85-9.38,3-14l3.62-13.88a387.27,387.27,0,0,1,19.62-54,388.45,388.45,0,0,1,62.35-96.66,434.88,434.88,0,0,1,41.36-40.47,424.71,424.71,0,0,1,46.93-34l12.51-7.38c2.06-1.27,4.23-2.35,6.37-3.48l6.43-3.38,6.44-3.37,6.59-3.06,6.6-3.06c2.2-1,4.39-2.07,6.65-2.94l13.48-5.47c4.51-1.78,9.14-3.25,13.7-4.89,2.29-.79,4.58-1.62,6.88-2.38l7-2.06,7-2.06c2.33-.69,4.65-1.4,7-1.92l14.16-3.42c2.35-.62,4.75-1,7.14-1.46L467.1,124l7.16-1.35,7.22-1c4.82-.62,9.62-1.4,14.46-1.89l14.53-1.22,3.64-.3,3.64-.13,7.29-.23,7.29-.23,1.82-.06h1.14l0.89,0,3.56,0.07L554,117.91c4.85,0.24,9.8.65,14.7,1,2.45,0.19,4.93.31,7.36,0.56l7.25,0.88,7.25,0.88c2.42,0.3,4.84.55,7.23,1l14.4,2.48c2.41,0.36,4.78.95,7.16,1.47l7.13,1.6,7.13,1.6,7,1.93c4.68,1.34,9.42,2.52,14.06,4l13.88,4.61c2.33,0.72,4.6,1.62,6.87,2.51l6.82,2.64,6.82,2.65,6.69,3,6.68,3c2.22,1,4.49,1.93,6.63,3.08l13,6.65a423.27,423.27,0,0,1,49.46,31.22A397.39,397.39,0,0,1,854.32,277a389.11,389.11,0,0,1,55,103L914,393.81c1.51,4.64,2.7,9.38,4.07,14.07l2,7.05,1.64,7.14,1.63,7.14c0.54,2.38,1.13,4.75,1.5,7.16l2.55,14.42c0.47,2.4.73,4.82,1,7.24l0.91,7.26,0.91,7.26c0.26,2.43.38,4.86,0.58,7.29,0.34,4.87.77,9.73,1,14.6l0.34,14.63,0.08,3.66,0,0.91v1.16l0,1.78L932,523.72l-0.19,7.12-0.11,3.57-0.28,3.7-1.18,14.77c-0.48,4.9-1.24,9.69-1.85,14.53l-1,7.25-1.33,7.19L924.79,589c-0.46,2.39-.83,4.81-1.44,7.17L920,610.45c-0.52,2.38-1.22,4.72-1.9,7.06l-2,7-2,7c-0.75,2.32-1.57,4.61-2.36,6.92-1.63,4.59-3.09,9.24-4.86,13.78l-5.44,13.56a413.77,413.77,0,0,1-26.57,52,409.47,409.47,0,0,1-34,47.36,437.25,437.25,0,0,1-40.55,41.76,431.07,431.07,0,0,1-46.17,35.31,398.52,398.52,0,0,1-50.82,28L690,876c-4.44,1.9-9,3.48-13.52,5.23-2.26.85-4.51,1.73-6.78,2.54l-6.9,2.23-6.89,2.23c-2.29.75-4.59,1.51-6.93,2.09l-14,3.76c-4.67,1.22-9.42,2.1-14.12,3.16l-7.07,1.52-7.14,1.17-7.13,1.17c-2.38.37-4.74,0.85-7.15,1.05a431.52,431.52,0,0,1-57.58,3.23l2.12-.55-52.31,27.64-52.41,27.47-4.81,2.52,1.93-5,14.5-37.32,14.57-37.3-12.6,38-12.67,38-2.88-2.46,51.17-29.7,51.27-29.53,0.88-.51,1.24,0a421.8,421.8,0,0,0,56-5.15c4.63-.7,9.21-1.73,13.81-2.57l6.89-1.33,6.82-1.67c4.53-1.16,9.11-2.14,13.6-3.44l13.44-4c2.25-.62,4.45-1.42,6.65-2.21l6.61-2.34,6.6-2.34c2.18-.85,4.32-1.77,6.49-2.64,4.3-1.82,8.67-3.46,12.91-5.41l12.67-5.95c2.13-.95,4.17-2.08,6.23-3.17l6.18-3.28,6.17-3.28,6-3.57,6-3.56c2-1.18,4-2.34,6-3.66l11.68-7.66a415.2,415.2,0,0,0,43.61-34.78,420.27,420.27,0,0,0,38-40.73,427.81,427.81,0,0,0,31.65-45.73,394.79,394.79,0,0,0,24.69-49.75l5-13c1.63-4.33,3-8.77,4.45-13.15,0.72-2.2,1.48-4.39,2.16-6.59l1.85-6.69,1.85-6.69c0.62-2.23,1.27-4.45,1.73-6.72l3-13.54c0.56-2.24.87-4.54,1.28-6.82l1.18-6.84,1.18-6.83,0.84-6.89c0.52-4.58,1.19-9.19,1.58-13.75l1-13.64,0.26-3.41,0.1-3.55,0.17-7.12,0.17-7.12,0-1.78v-0.45c0-.21,0,0.21,0-0.17l0-.87-0.1-3.47-0.38-13.86c-0.27-4.61-.7-9.22-1-13.82-0.2-2.3-.32-4.61-0.57-6.91l-0.89-6.87L907.41,461c-0.3-2.29-.55-4.59-1-6.85l-2.46-13.64c-0.36-2.28-.93-4.52-1.45-6.77L900.91,427l-1.57-6.75-1.89-6.66c-1.31-4.43-2.45-8.91-3.9-13.29l-4.47-13.11a390.38,390.38,0,0,0-22.55-50.54A413.77,413.77,0,0,0,837,289.86a376,376,0,0,0-78-78.27,383.75,383.75,0,0,0-97.27-52.49l-13.11-4.53c-4.39-1.47-8.87-2.63-13.3-4l-6.67-1.92-6.75-1.6-6.75-1.6c-2.25-.53-4.49-1.11-6.78-1.48l-13.66-2.53c-2.27-.47-4.57-0.73-6.86-1l-6.89-.92-6.89-.92c-2.29-.26-4.56-0.39-6.84-0.6-4.58-.35-9.08-0.8-13.72-1.1l-14.24-.45-3.56-.11-0.89,0h-0.64l-1.74,0-7,.13-7,.13-3.48.08-3.47.24-13.88.94c-4.62.38-9.22,1-13.83,1.53l-6.91.81-6.86,1.16-6.87,1.15c-2.29.4-4.59,0.71-6.85,1.26l-13.61,3c-2.28.45-4.51,1.09-6.75,1.71l-6.72,1.84-6.73,1.83c-2.22.68-4.42,1.43-6.63,2.15-4.4,1.48-8.87,2.8-13.23,4.42l-13,5a400.91,400.91,0,0,0-50.1,24.59,410.8,410.8,0,0,0-46.16,31.57,422.59,422.59,0,0,0-41.14,38.07A437.21,437.21,0,0,0,217,301.65a403.77,403.77,0,0,0-28.65,48.47l-6,12.75c-2,4.27-3.65,8.67-5.52,13-0.9,2.18-1.84,4.34-2.71,6.53L171.67,389l-2.41,6.65c-0.81,2.21-1.63,4.43-2.28,6.7a408.84,408.84,0,0,0-13.6,55l-2.16,14c-0.17,1.17-.38,2.34-0.52,3.52l-0.36,3.53-0.72,7.07-0.72,7.08c-0.27,2.36-.28,4.74-0.44,7.11Z" transform="translate(-147.71 -117.54)"/><path class="cls-5" d="M510.83,340.58q7.8,10.6,7.8,20.07a37.45,37.45,0,0,1-1.67,8.64,5.91,5.91,0,0,1-4.18,3.9,24.48,24.48,0,0,1-3.62.84h-3.9q-3.91,0-12.26-2.51t-10-3.07q-37.35-10-78,17.84a223.88,223.88,0,0,0-66.34,70.8q-18.4,30.1-7.25,44.6,5.57,7.25,23.41,17.84,13.38,8.36,21.18,13.94A194.64,194.64,0,0,1,393.49,548a79.18,79.18,0,0,1,15.61,19.23,82.83,82.83,0,0,1,8.64,22.58q7.24,29-8.92,55.75a104.3,104.3,0,0,1-32.33,34A132.62,132.62,0,0,1,331.88,699q-26.76,6.13-48.5,1.67a87,87,0,0,1-19-7.25,40.24,40.24,0,0,1-17.84-19Q241,662.8,243.25,655q1.67-7.24,6.69-6.13,3.34,1.12,7.25,6.13,5.57,6.69,7.81,8.36,20.62,16.17,63.55-4.46,35.67-17.27,40.7-44.6,3.89-21.74-24.53-39.58-2.23-1.67-14.22-8.36t-19.23-11.71q-24-15.6-34-38.46-11.71-26.76,0-61.32,6.69-20.07,23.41-45.15a312.76,312.76,0,0,1,65.22-70.8q28.43-21.74,56.31-27.87,39.58-8.91,73,13.38A58.4,58.4,0,0,1,510.83,340.58Z" transform="translate(-147.71 -117.54)"/><path class="cls-5" d="M726.57,340.58q7.8,10.6,7.81,20.07a37.48,37.48,0,0,1-1.68,8.64,5.9,5.9,0,0,1-4.18,3.9,24.32,24.32,0,0,1-3.62.84H721q-3.91,0-12.26-2.51t-10-3.07q-37.36-10-78,17.84a223.87,223.87,0,0,0-66.34,70.8q-18.39,30.1-7.25,44.6,5.57,7.25,23.41,17.84,13.38,8.36,21.18,13.94A194,194,0,0,1,609.22,548a79.21,79.21,0,0,1,15.61,19.23,82.85,82.85,0,0,1,8.64,22.58q7.24,29-8.92,55.75a104.31,104.31,0,0,1-32.33,34A132.64,132.64,0,0,1,547.62,699q-26.76,6.13-48.5,1.67a87,87,0,0,1-19-7.25,40.24,40.24,0,0,1-17.84-19Q456.76,662.8,459,655q1.67-7.24,6.69-6.13Q469,650,472.92,655q5.57,6.69,7.81,8.36,20.62,16.17,63.55-4.46,35.67-17.27,40.7-44.6,3.89-21.74-24.53-39.58-2.24-1.67-14.22-8.36T527,554.65q-24-15.6-34-38.46-11.71-26.76,0-61.32,6.69-20.07,23.41-45.15a312.78,312.78,0,0,1,65.22-70.8q28.43-21.74,56.31-27.87,39.57-8.91,73,13.38A58.39,58.39,0,0,1,726.57,340.58Z" transform="translate(-147.71 -117.54)"/><path class="cls-5" d="M815.77,641.06a8.7,8.7,0,0,0,3.9.28q2.22-.27,4.46,2.51t2.79,8.36a29.93,29.93,0,0,1-2.23,11.15,39.85,39.85,0,0,1-9.76,15.05,52.3,52.3,0,0,1-16.72,10.31,156.38,156.38,0,0,1-16.45,5.85q-6.14,1.67-18.4,4.46l-12.54,2.51q-9.76,1.95-15.89,3.62a62.84,62.84,0,0,0-11.71,4.46,18.44,18.44,0,0,1-3.06,2,40,40,0,0,0-4.74,3.06,28.76,28.76,0,0,1-5.3,3.07,21.6,21.6,0,0,1-4.74,1.67A2.68,2.68,0,0,1,702.6,718q-2.8-3.91-5-15.05-5-22.29-1.67-37.91a24.59,24.59,0,0,1,3.9-10q-1.67-10.58-2.79-22.86a316,316,0,0,1,.56-49.61q3.89-36.23,19.51-92,11.15-39,36.79-103.69,17.84-46.83,21.74-59.09,3.89-11.15,8.92-12.82,6.13-2.22,15.61,4.46,18.39,12.83,23.41,35.68c0.37,3.34.64,6.6,0.84,9.76a38.13,38.13,0,0,1-.84,10q-1.12,5.3-1.67,8.36a49.49,49.49,0,0,1-3.34,9.48q-2.8,6.42-3.62,8.08t-4.18,8.92q-10,20.07-27.32,59.65Q763.91,518.42,753.89,558q-0.56,2.8-4.74,25.37T741.06,626q-3.91,20.07-4.46,20.07h1.67l10.59-.56q8.36,0,31.22-2.51T815.77,641.06Z" transform="translate(-147.71 -117.54)"/></svg>